<?xml version="1.0" standalone="no"?>
<!DOCTYPE svg PUBLIC "-//W3C//DTD SVG 20010904//EN"
 "http://www.w3.org/TR/2001/REC-SVG-20010904/DTD/svg10.dtd">
<svg version="1.0" xmlns="http://www.w3.org/2000/svg"
 width="1024.000000pt" height="1024.000000pt" viewBox="0 0 1024.000000 1024.000000"
 preserveAspectRatio="xMidYMid meet">

<g transform="translate(0.000000,1024.000000) scale(0.100000,-0.100000)"
fill="#000000" stroke="none">
<path d="M1865 9000 c3 -19 8 -71 11 -115 8 -100 46 -319 81 -450 69 -267 252
-641 388 -794 27 -31 74 -86 102 -121 69 -86 314 -318 446 -424 181 -146 401
-295 609 -412 206 -116 658 -308 903 -384 50 -15 108 -35 130 -45 22 -9 96
-31 165 -50 69 -18 150 -40 180 -48 76 -22 306 -74 358 -82 33 -5 41 -10 32
-19 -7 -7 -57 -11 -140 -11 l-130 0 0 -25 c0 -52 -20 -100 -41 -100 -18 0 -20
4 -14 48 4 26 9 54 11 64 6 19 -13 26 -171 63 -200 47 -794 249 -924 314 -33
17 -89 42 -123 55 -97 36 -339 160 -468 238 -221 136 -340 219 -640 448 -19
15 -136 100 -260 190 -291 211 -351 260 -702 575 -27 23 -48 41 -48 39 0 -16
211 -431 262 -515 66 -110 182 -276 253 -364 91 -113 253 -279 324 -332 42
-32 103 -80 136 -108 185 -157 553 -360 900 -497 225 -89 453 -158 843 -255
23 -5 23 -6 -5 -20 -22 -12 -52 -14 -143 -10 -169 9 -233 23 -570 123 -30 9
-104 37 -165 61 -60 25 -153 62 -205 83 -173 69 -963 461 -1160 575 -154 89
-305 181 -345 209 l-30 21 19 -30 c11 -17 26 -41 35 -55 50 -81 220 -309 300
-404 190 -223 435 -441 616 -548 112 -66 370 -200 450 -233 44 -18 140 -58
213 -88 368 -154 865 -273 1242 -296 231 -15 514 -13 655 4 142 16 449 90 608
145 248 85 603 286 727 410 68 68 232 285 357 470 133 197 194 271 305 368
107 94 330 244 405 272 81 31 167 45 190 31 12 -7 13 -10 4 -11 -7 0 -58 -20
-113 -45 -163 -74 -292 -166 -452 -323 -122 -121 -157 -165 -240 -305 -33 -54
-110 -169 -172 -255 -62 -86 -153 -220 -203 -297 -49 -77 -131 -192 -180 -255
-50 -63 -124 -158 -163 -210 -210 -275 -543 -579 -883 -807 -199 -133 -482
-274 -665 -331 -36 -11 -138 -43 -227 -71 -90 -28 -218 -65 -285 -82 -150 -37
-201 -61 -196 -92 3 -21 7 -22 93 -19 71 3 116 12 212 43 67 21 137 39 156 39
36 0 72 -20 66 -37 -5 -14 -190 -140 -226 -154 -16 -7 -44 -11 -64 -10 -29 1
-38 -3 -47 -24 -7 -15 -9 -38 -6 -53 6 -26 5 -26 -15 6 -32 50 -88 43 -243
-34 -50 -24 -118 -49 -152 -55 -149 -26 -249 -50 -297 -71 -48 -20 -50 -23
-28 -29 31 -8 72 -29 80 -41 3 -5 29 7 58 26 28 19 69 38 89 41 20 4 69 13
108 20 40 8 88 11 108 8 33 -5 37 -9 53 -62 9 -31 19 -59 23 -63 11 -14 152
78 255 164 55 46 127 105 160 131 33 25 77 61 98 78 23 19 37 26 37 17 0 -20
-26 -55 -99 -133 -36 -39 -86 -94 -109 -123 l-44 -52 31 0 c18 0 43 7 57 17
24 15 27 15 52 -4 25 -19 27 -26 27 -92 0 -50 4 -71 12 -71 14 0 161 80 244
133 97 61 209 122 502 271 158 80 318 165 355 187 37 23 83 51 102 62 137 82
416 311 581 478 130 131 366 401 448 513 238 321 341 499 476 816 165 388 261
536 492 761 67 66 128 113 193 152 85 50 227 113 236 104 2 -1 -43 -34 -99
-72 -56 -38 -124 -87 -152 -109 -57 -46 -218 -219 -265 -285 -103 -142 -219
-366 -356 -689 -41 -96 -84 -192 -95 -214 -59 -116 -337 -527 -468 -693 -221
-280 -485 -537 -764 -744 -132 -98 -308 -202 -617 -366 -102 -54 -205 -112
-229 -128 -78 -53 -206 -170 -302 -276 -52 -58 -137 -150 -190 -205 -53 -56
-101 -110 -106 -121 -16 -29 22 -74 68 -81 32 -5 37 -2 66 38 17 23 57 70 88
103 71 75 174 203 197 243 21 39 61 51 87 27 18 -16 16 -20 -67 -98 -173 -162
-297 -309 -348 -409 l-24 -48 52 -27 c29 -15 56 -29 59 -31 3 -1 16 21 28 50
55 126 95 199 144 263 63 83 81 93 75 41 -4 -32 -1 -36 18 -36 13 0 60 29 107
64 120 92 285 173 432 211 763 202 1174 385 1556 693 131 105 304 277 380 377
189 247 318 522 408 867 36 137 43 184 66 448 40 452 72 641 147 854 47 135
100 223 209 346 110 125 253 209 429 251 30 7 61 17 67 22 13 10 7 31 -6 22
-5 -2 -6 6 -4 20 4 18 -1 27 -25 39 -17 9 -39 16 -48 16 -10 0 -31 4 -48 9
-17 5 -51 15 -76 23 -46 13 -70 29 -70 46 0 16 -27 21 -79 15 -38 -4 -57 -2
-75 11 -14 9 -35 16 -46 16 -13 0 -45 24 -79 58 -51 51 -57 63 -53 90 3 23 8
29 21 25 12 -5 13 -3 4 7 -9 10 -17 8 -38 -8 -24 -19 -29 -20 -42 -6 -8 8 -13
24 -10 34 3 13 0 20 -9 20 -8 0 -14 -10 -14 -25 0 -18 -5 -25 -20 -25 -14 0
-20 7 -20 23 0 18 2 19 11 7 8 -12 10 -12 7 5 -4 25 -48 34 -48 11 0 -18 -26
-22 -32 -4 -2 6 -15 13 -29 15 -13 2 -25 8 -27 13 -2 6 -27 10 -56 10 -47 0
-54 3 -64 25 -16 34 -15 38 3 31 8 -3 15 -2 15 3 0 5 -16 11 -35 13 -28 3 -32
2 -22 -10 9 -11 7 -17 -7 -28 -15 -10 -16 -17 -8 -27 9 -11 6 -19 -13 -37 -15
-14 -25 -35 -25 -51 0 -42 -27 -61 -158 -108 -65 -24 -125 -46 -132 -51 -7 -4
-60 -52 -118 -106 -58 -55 -119 -108 -136 -118 -40 -24 -157 -68 -165 -61 -7
8 24 58 41 66 7 4 33 15 58 25 89 37 245 169 255 216 6 26 25 40 25 18 0 -5
39 10 88 33 48 24 98 49 112 55 22 11 19 11 -25 6 -44 -5 -194 -65 -280 -111
-38 -21 -152 -120 -225 -195 -31 -32 -59 -58 -63 -58 -4 0 -7 14 -7 30 0 95
348 340 548 385 40 9 72 21 72 25 0 5 18 14 40 20 48 13 55 40 11 40 -16 0
-32 6 -34 13 -4 9 -8 8 -16 -3 -8 -11 -11 -12 -11 -2 0 7 -5 10 -10 7 -6 -3
-10 -2 -10 4 0 5 6 12 12 15 32 15 -44 -4 -174 -42 -146 -44 -306 -151 -450
-300 -112 -117 -161 -179 -261 -332 -80 -124 -198 -265 -270 -324 -114 -93
-327 -183 -493 -208 -44 -6 -158 -11 -254 -11 -157 0 -191 3 -330 32 -191 39
-341 83 -575 168 -490 178 -821 349 -1248 646 -444 308 -810 661 -1208 1162
-52 66 -101 130 -109 141 -8 12 -39 57 -69 100 -30 44 -75 106 -100 139 -25
33 -67 101 -94 150 -37 69 -47 82 -42 55z m602 -1032 c43 -19 83 -48 83 -62 0
-7 -27 -43 -60 -82 -32 -38 -59 -73 -60 -77 0 -5 9 -20 20 -35 13 -16 17 -29
11 -35 -7 -7 -30 8 -66 42 -31 28 -61 51 -66 51 -5 0 -9 5 -9 11 0 7 12 9 33
5 29 -5 36 -1 80 48 26 30 47 59 47 65 0 5 -16 13 -36 17 -37 7 -50 23 -40 49
7 18 26 19 63 3z m263 -269 c27 -17 50 -33 50 -36 0 -11 -26 -50 -71 -106 -27
-34 -49 -65 -49 -71 0 -5 10 -20 22 -33 17 -18 19 -26 10 -35 -9 -9 -21 -4
-50 23 -20 20 -52 46 -69 58 -18 12 -33 29 -33 37 0 12 4 12 31 -1 17 -9 34
-15 39 -13 14 5 98 123 93 131 -2 4 -20 14 -39 22 -31 13 -34 17 -24 35 15 27
31 25 90 -11z m226 -221 c25 -11 48 -27 51 -34 3 -8 -18 -45 -47 -84 -62 -86
-65 -93 -45 -110 14 -12 22 -50 9 -50 -14 0 -134 96 -134 108 0 15 15 15 40 0
10 -7 21 -10 23 -8 25 27 85 125 81 131 -3 5 -16 9 -30 9 -26 0 -40 20 -30 45
7 20 28 19 82 -7z m4975 -118 c62 -65 65 -147 6 -214 -73 -85 -215 -55 -274
58 -19 37 -12 109 13 137 35 39 85 58 153 59 62 0 65 -1 102 -40z m-4702 -88
c14 -10 27 -28 29 -38 2 -16 -43 -94 -93 -161 -7 -9 -3 -17 13 -28 26 -19 29
-45 5 -45 -22 0 -152 94 -160 116 -9 25 3 26 41 3 21 -12 41 -18 45 -13 33 39
81 117 76 124 -9 14 -62 12 -68 -2 -3 -7 -6 3 -6 23 -1 20 2 39 7 43 12 13 84
-1 111 -22z m-885 -65 c-8 -23 -27 -59 -41 -80 l-26 -38 21 -38 c38 -67 23
-69 -53 -8 -68 54 -74 67 -31 67 39 0 79 39 110 107 24 54 40 46 20 -10z
m5116 -32 c0 -3 -124 -45 -136 -45 -2 0 -4 4 -4 9 0 5 24 15 53 24 53 16 87
21 87 12z m-3967 -74 c37 -14 34 -36 -12 -108 -67 -104 -66 -101 -37 -132 16
-17 24 -34 20 -44 -5 -13 -17 -8 -69 28 -35 24 -73 46 -84 50 -12 3 -21 13
-21 21 0 16 26 19 35 4 10 -16 22 -12 45 13 20 20 70 108 70 122 0 3 -18 5
-40 5 -32 0 -40 4 -40 18 0 43 58 53 133 23z m-868 -35 c47 -20 45 -41 -10
-118 -67 -94 -73 -108 -52 -123 23 -17 23 -49 0 -41 -17 7 -79 50 -130 92 -40
32 -20 50 21 19 18 -14 38 -25 44 -25 10 0 82 136 82 153 0 3 -15 7 -32 9 -25
2 -34 8 -36 26 -3 20 1 22 38 22 22 0 56 -7 75 -14z m4784 -22 c17 -14 31 -35
31 -45 0 -48 -58 -114 -164 -188 -97 -67 -167 -54 -197 36 -13 42 -5 80 19 88
11 3 43 24 73 46 66 50 145 89 181 89 14 0 40 -12 57 -26z m-470 -3 c19 -12
-7 -48 -137 -189 -84 -90 -107 -110 -118 -101 -24 20 -15 45 39 105 28 33 67
80 86 104 62 80 97 102 130 81z m1002 -117 c-47 -25 -103 -62 -126 -82 -23
-20 -51 -44 -64 -52 -12 -8 -43 -43 -67 -77 -38 -53 -50 -63 -75 -63 -31 0
-36 11 -19 54 27 73 240 230 340 252 95 21 97 15 11 -32z m-4197 17 c26 -10
28 -15 23 -46 -3 -19 -26 -63 -50 -97 l-45 -63 29 -26 c28 -26 38 -49 20 -49
-18 0 -150 83 -145 91 3 5 17 9 32 9 22 1 34 11 62 58 19 31 36 59 38 63 2 4
-13 10 -33 13 -28 6 -35 12 -35 30 0 12 3 26 8 30 8 9 55 2 96 -13z m4476 -25
c-8 -7 -58 -26 -110 -41 -52 -16 -121 -41 -152 -57 -61 -30 -78 -34 -78 -18 0
21 136 81 250 110 96 24 109 25 90 6z m-5332 -62 c41 -17 39 -26 -24 -136 -47
-83 -52 -103 -29 -112 13 -5 22 -46 10 -46 -3 0 -39 26 -80 57 -75 57 -94 81
-52 68 62 -19 60 -20 95 52 30 63 31 69 15 81 -9 6 -27 12 -40 12 -23 0 -33
27 -16 44 9 9 78 -2 121 -20z m1144 -63 c12 -10 -11 -80 -44 -140 l-31 -53 29
-23 c22 -18 26 -26 18 -35 -9 -9 -29 -2 -83 25 -71 35 -88 60 -42 60 16 0 30
16 56 63 19 34 35 65 35 67 0 3 -18 5 -40 5 -36 0 -40 3 -40 25 0 37 26 45 84
28 28 -8 54 -18 58 -22z m2962 15 c39 -16 66 -67 66 -124 0 -51 -48 -125 -108
-167 -57 -39 -134 -42 -164 -6 -50 63 7 238 96 292 37 23 65 24 110 5z m-3848
-117 c25 -7 48 -18 51 -25 3 -8 -19 -57 -47 -110 -49 -92 -51 -98 -34 -111 10
-7 21 -13 26 -13 10 0 10 -37 0 -44 -12 -7 -152 84 -152 100 0 17 14 18 41 4
17 -10 23 -3 53 62 35 78 34 91 -12 94 -15 1 -30 3 -34 3 -10 1 -10 35 -1 44
10 10 59 8 109 -4z m1127 -6 c38 -6 39 -7 32 -41 -3 -19 -21 -63 -38 -98 l-31
-64 22 -16 c22 -15 30 -44 13 -44 -9 0 -114 48 -139 63 -7 5 -10 13 -6 18 3 6
15 4 30 -5 13 -9 27 -16 32 -16 9 0 52 119 52 145 0 9 -6 12 -15 9 -26 -10
-65 5 -65 25 0 30 36 37 113 24z m3297 -28 c0 -8 -40 -57 -89 -108 -48 -52
-91 -104 -94 -116 -5 -19 -3 -20 11 -9 14 11 15 10 9 -5 -4 -10 -7 -30 -7 -43
0 -36 -25 -40 -65 -10 -40 31 -43 48 -17 91 69 112 252 258 252 200z m451 -3
c-19 -36 -114 -188 -136 -217 -39 -52 -68 -118 -80 -180 -10 -55 -13 -60 -35
-57 -14 1 -31 9 -39 17 -23 23 8 104 79 212 73 111 252 302 211 225z m-1390
-59 c5 -13 9 -36 9 -51 0 -15 16 -65 36 -112 20 -47 44 -114 53 -150 16 -58
20 -65 49 -74 18 -5 32 -13 32 -17 0 -31 -175 -103 -190 -78 -14 21 1 39 31
39 16 0 29 5 29 10 0 6 -20 61 -44 123 -24 61 -49 130 -56 152 l-13 39 -42
-47 c-22 -26 -47 -47 -55 -47 -18 0 -50 30 -50 48 0 13 48 72 137 168 35 38
59 37 74 -3z m-2051 -10 c0 -5 -12 -50 -26 -102 -25 -93 -26 -123 -2 -119 8 2
14 -9 16 -24 2 -16 2 -28 0 -28 -22 0 -144 63 -146 75 -3 13 1 15 17 10 18 -5
24 0 35 27 8 18 17 50 21 71 7 36 7 37 -23 37 -35 0 -46 12 -37 40 6 17 15 20
76 20 38 0 69 -3 69 -7z m-1103 -64 c22 -8 22 -9 -27 -111 -27 -56 -46 -106
-43 -111 3 -4 15 -12 28 -17 17 -7 22 -14 18 -29 -3 -12 -7 -21 -10 -21 -10 0
-163 93 -170 103 -4 7 0 8 13 3 50 -21 52 -20 88 53 20 39 36 76 36 82 0 7
-13 10 -36 7 -27 -3 -38 0 -45 15 -21 38 -5 49 63 41 35 -4 73 -10 85 -15z
m1345 -21 c15 -12 15 -18 -2 -70 -32 -101 -33 -125 -10 -138 21 -11 27 -35 10
-45 -5 -3 -21 2 -35 11 -14 9 -40 20 -58 23 -24 5 -33 13 -36 31 -3 24 -2 24
16 7 28 -24 42 -21 49 11 3 15 10 43 15 62 14 56 12 60 -28 57 -30 -2 -38 2
-41 17 -2 11 4 25 14 33 23 17 85 17 106 1z m-1049 -94 c44 -29 57 -57 57
-120 0 -118 -78 -180 -174 -140 -49 20 -66 51 -66 119 0 78 19 121 67 146 51
27 71 26 116 -5z m-1360 5 c20 -5 37 -13 37 -18 0 -4 -11 -41 -25 -81 -14 -40
-25 -86 -25 -102 0 -15 -3 -28 -7 -28 -19 2 -96 49 -80 50 19 0 77 84 77 112
0 19 -28 38 -47 31 -20 -7 -27 19 -8 34 22 16 29 16 78 2z m2671 -49 c0 -30
-4 -80 -8 -111 -8 -52 -7 -56 13 -62 23 -6 29 -27 8 -27 -22 0 -121 31 -131
41 -6 5 2 9 21 9 36 0 41 10 50 90 l6 57 -43 -1 c-26 -1 -45 4 -47 12 -6 16
74 53 107 50 23 -3 25 -6 24 -58z m2825 -86 c-17 -60 -42 -131 -55 -159 -24
-49 -46 -208 -69 -507 -4 -49 -12 -88 -17 -88 -5 0 -23 7 -39 16 -22 11 -28
19 -20 27 15 18 31 131 31 217 0 92 32 229 66 288 14 24 34 75 45 114 23 82
82 225 86 211 2 -6 -10 -59 -28 -119z m-2530 -23 c-1 -53 2 -104 6 -113 9 -23
-15 -24 -81 -2 -59 20 -69 28 -60 49 5 15 7 15 22 1 8 -9 26 -16 40 -16 22 0
24 4 24 43 0 23 -3 52 -6 63 -6 21 -6 21 -42 3 -40 -19 -58 -12 -48 19 9 27
94 63 129 54 16 -4 18 -15 16 -101z m299 -4 c2 -76 5 -87 20 -85 9 2 17 -3 17
-11 0 -10 -22 -18 -75 -27 -41 -7 -76 -11 -78 -9 -3 2 5 15 16 29 10 14 22 22
26 19 3 -3 6 24 6 60 0 37 -3 67 -7 67 -3 0 -15 -8 -25 -17 -12 -11 -22 -13
-29 -6 -27 27 33 74 91 70 l35 -2 3 -88z m1572 58 c36 -19 37 -25 6 -73 -36
-57 -96 -180 -96 -196 0 -8 11 -23 26 -33 17 -13 23 -24 18 -36 -3 -9 -10 -17
-16 -17 -27 0 -168 95 -168 113 0 5 18 7 40 4 27 -3 40 -1 40 7 0 6 16 45 35
85 20 41 33 76 30 79 -3 3 -5 0 -5 -6 0 -7 -4 -12 -10 -12 -18 0 -11 26 18 63
30 41 41 43 82 22z m-4494 -27 c2 -3 -13 -45 -34 -94 -58 -131 -58 -132 -28
-155 23 -18 36 -49 20 -49 -18 0 -164 87 -164 99 0 9 6 11 18 6 44 -19 54 -12
84 59 37 91 36 98 -7 95 -40 -4 -59 10 -49 36 6 15 17 17 81 13 40 -3 76 -7
79 -10z m1329 -45 c-4 -27 -11 -64 -16 -83 -13 -52 -11 -91 7 -104 8 -6 12
-19 9 -27 -5 -14 -14 -13 -76 9 -38 14 -74 33 -80 43 -8 17 -7 18 14 10 13 -5
29 -6 34 -3 9 6 43 114 43 136 0 3 -15 6 -34 6 -38 0 -49 10 -40 34 7 17 29
23 97 25 l48 1 -6 -47z m2144 25 c5 -13 51 -80 102 -150 52 -70 107 -145 122
-167 24 -34 34 -41 62 -41 19 0 36 -4 39 -9 8 -12 -48 -59 -94 -79 -19 -9 -50
-30 -69 -46 l-35 -29 -18 23 c-10 12 -18 26 -18 31 0 11 46 23 59 15 24 -15
18 15 -13 65 -150 244 -149 244 -160 218 -5 -13 -23 -46 -39 -72 l-30 -48 -28
27 c-16 15 -29 34 -29 41 0 8 13 39 29 71 15 31 31 74 34 95 6 37 39 76 65 77
7 0 16 -10 21 -22z m-1843 -150 c-4 -40 -9 -87 -12 -105 -5 -28 -3 -33 20 -39
21 -5 24 -9 15 -20 -12 -15 -51 -12 -117 8 -34 10 -34 10 -11 22 26 13 37 41
38 104 l1 42 -40 -6 c-35 -6 -40 -4 -40 13 0 35 30 49 114 52 l39 1 -7 -72z
m-1400 35 c30 -5 31 -7 23 -37 -5 -18 -20 -55 -33 -82 -14 -28 -27 -67 -31
-86 -6 -32 -4 -36 20 -42 19 -5 25 -11 21 -22 -3 -9 -6 -20 -6 -25 0 -16 -16
-10 -76 26 -75 46 -88 59 -49 51 29 -6 31 -5 53 56 13 35 26 76 29 92 6 28 5
29 -31 22 -35 -7 -36 -6 -36 23 0 34 13 42 55 35 17 -3 44 -8 61 -11z m4668
-9 c9 -8 16 -19 16 -23 0 -21 -62 -186 -96 -253 -35 -71 -37 -81 -26 -110 6
-17 10 -33 8 -35 -9 -9 -56 11 -87 36 -34 29 -36 61 -2 61 13 0 31 30 67 117
66 156 65 153 27 153 -34 0 -36 2 -20 31 19 37 86 51 113 23z m-2992 -26 c11
-9 17 -37 21 -96 5 -79 4 -84 -16 -91 -46 -17 -111 16 -127 65 -15 45 -2 80
43 112 36 25 56 28 79 10z m1281 -84 c33 -24 120 -155 152 -228 34 -77 34
-153 0 -194 -13 -16 -50 -39 -80 -50 -137 -53 -209 -12 -290 163 -41 88 -47
123 -34 184 12 59 67 127 112 141 45 13 110 6 140 -16z m-2679 8 c5 -8 -21
-107 -48 -181 -16 -43 -15 -45 4 -66 21 -22 19 -55 -4 -55 -20 1 -129 65 -134
79 -4 11 3 12 31 7 36 -7 36 -6 47 36 6 24 15 59 21 78 13 51 13 52 -28 48
-43 -3 -56 18 -28 46 17 17 129 24 139 8z m190 -83 l43 -11 -29 -111 c-15 -61
-28 -117 -28 -124 0 -7 11 -15 25 -19 20 -5 25 -13 25 -35 0 -28 -2 -29 -22
-18 -64 34 -100 62 -89 68 11 7 41 127 41 169 0 19 -5 22 -40 22 -43 0 -50 13
-30 51 12 22 41 24 104 8z m2015 -114 c22 -58 55 -154 72 -214 17 -60 35 -114
38 -120 6 -8 19 -7 49 3 l42 15 0 -34 c0 -19 -6 -37 -12 -42 -7 -4 -69 -22
-136 -39 l-124 -30 -9 23 c-5 14 -9 26 -9 28 0 8 81 26 90 20 6 -3 10 0 10 8
0 18 -35 153 -67 256 l-26 84 -33 -36 c-19 -20 -46 -44 -60 -54 -26 -16 -27
-16 -45 6 -26 32 -24 43 12 77 17 16 49 53 71 82 34 46 63 69 90 71 3 1 25
-46 47 -104z m1554 54 c36 -16 71 -85 71 -139 0 -91 -125 -283 -208 -321 -53
-24 -78 -24 -126 1 -76 39 -94 130 -46 235 48 106 137 214 196 238 19 8 82 0
113 -14z m-3203 -46 c0 -5 -9 -57 -20 -118 -27 -150 -26 -158 10 -172 23 -8
30 -18 30 -37 l0 -26 -87 32 c-97 34 -113 43 -113 65 0 11 5 13 18 8 56 -24
57 -24 69 82 7 53 11 99 9 100 -1 1 -19 -2 -40 -8 -30 -8 -41 -8 -47 3 -11 16
-11 20 0 37 16 24 171 55 171 34z m732 -48 c4 -16 22 -100 38 -185 45 -226 46
-230 75 -230 26 0 29 -7 19 -34 -5 -12 -21 -16 -74 -16 -79 0 -71 -15 -95 165
-21 158 -25 185 -29 185 -1 0 -22 -18 -45 -40 -23 -22 -48 -40 -57 -40 -21 0
-54 72 -36 78 27 9 83 65 109 109 22 39 29 44 56 41 25 -2 32 -9 39 -33z m502
1 c45 -34 62 -66 87 -163 36 -142 19 -233 -53 -285 -44 -31 -135 -32 -193 -3
-51 25 -79 68 -110 167 -33 103 -34 197 -3 240 54 77 198 101 272 44z m2664
-27 c-6 -16 -13 -28 -15 -25 -8 8 6 56 17 56 5 0 5 -13 -2 -31z m-3555 -135
c-5 -132 -4 -159 9 -168 8 -6 17 -19 21 -30 6 -16 4 -18 -20 -12 -16 3 -49 9
-75 12 -52 7 -82 29 -54 40 9 3 22 4 30 1 10 -4 14 18 19 106 4 61 5 112 3
114 -1 2 -22 -3 -45 -12 l-42 -15 3 33 c3 28 10 36 58 59 30 15 65 28 77 28
l22 0 -6 -156z m3302 -40 c23 -15 23 -17 11 -57 -20 -61 -81 -201 -129 -290
-40 -76 -41 -78 -24 -106 15 -26 15 -29 1 -35 -38 -15 -75 -5 -111 27 -45 42
-41 67 11 67 31 0 36 4 46 38 7 20 34 84 60 142 63 137 64 143 21 144 -39 1
-47 13 -28 40 11 14 50 30 115 45 1 1 13 -6 27 -15z m252 -230 c8 -23 -28
-142 -92 -303 l-53 -135 24 -31 c13 -18 21 -34 18 -37 -5 -6 -68 6 -121 23
-40 13 -41 28 -7 60 35 32 48 60 95 195 46 133 49 161 17 166 -31 4 -35 34 -6
49 53 29 116 35 125 13z m-1057 -9 c17 -9 39 -34 51 -57 44 -87 2 -200 -126
-336 -61 -66 -95 -84 -155 -84 -115 0 -169 89 -123 204 25 64 110 193 150 229
67 58 143 75 203 44z m792 -193 c-20 -46 -51 -91 -51 -77 -1 11 57 115 64 115
2 0 -4 -17 -13 -38z m-293 -148 c39 -33 53 -82 41 -145 -12 -63 -29 -96 -104
-197 -86 -118 -157 -153 -240 -118 -53 22 -79 63 -73 114 11 99 147 310 227
350 60 30 110 29 149 -4z m-933 -194 c41 -26 69 -94 60 -144 -14 -76 -162
-248 -248 -289 -66 -31 -159 -17 -202 32 -12 13 -21 41 -24 75 -4 46 0 62 24
107 39 70 154 192 206 217 58 28 140 29 184 2z m1198 -74 c18 -8 41 -24 50
-37 49 -70 -21 -235 -158 -375 -82 -83 -123 -99 -182 -70 -78 37 -71 137 19
288 55 92 101 145 156 180 51 32 68 34 115 14z m-750 -290 c51 -21 79 -63 73
-109 -10 -72 -149 -254 -231 -301 -66 -39 -130 -39 -175 0 -26 22 -31 33 -31
70 0 26 9 63 21 87 28 56 192 217 249 245 53 26 51 26 94 8z m-965 -64 c38
-20 71 -73 71 -112 -1 -49 -37 -106 -116 -179 -87 -82 -158 -121 -219 -121
-72 0 -135 59 -135 126 0 81 49 154 155 229 104 75 179 92 244 57z m1236 -218
c27 -11 48 -62 40 -102 -8 -41 -102 -140 -206 -217 -72 -53 -127 -61 -153 -23
-19 26 -21 80 -4 111 18 35 85 108 141 155 86 71 137 93 182 76z m-1735 -79
c22 -23 22 -27 9 -52 -8 -14 -81 -93 -163 -175 -132 -132 -152 -148 -182 -148
-25 0 -38 7 -50 25 -22 34 -15 61 16 57 19 -2 45 14 100 60 152 128 215 212
122 164 -31 -16 -112 -46 -125 -46 -5 0 -1 10 8 22 18 26 190 117 221 118 11
0 31 -11 44 -25z m1001 -101 c43 -39 44 -120 1 -168 -19 -20 -157 -116 -230
-158 -91 -53 -172 -27 -172 54 0 22 6 51 14 66 17 31 135 148 185 182 75 51
161 62 202 24z m-1471 -15 c0 -17 -32 -38 -57 -39 -33 0 -28 15 10 34 38 19
47 20 47 5z m1761 -57 c-25 -47 -188 -178 -212 -170 -10 3 199 186 214 187 4
1 3 -7 -2 -17z m-21 -200 c0 -26 -36 -56 -105 -87 -33 -15 -98 -44 -145 -65
-47 -21 -98 -42 -115 -46 -16 -4 -55 -18 -85 -31 -30 -14 -107 -44 -170 -68
-63 -24 -162 -64 -220 -90 -151 -67 -210 -89 -185 -69 72 57 224 138 375 200
279 115 377 158 499 218 122 60 151 67 151 38z m-1776 -44 c24 -34 19 -61 -16
-95 -52 -49 -76 -58 -99 -37 -24 22 -24 61 -1 97 39 59 89 74 116 35z m1005
-33 c42 -51 49 -69 31 -80 -10 -6 -53 18 -46 26 3 2 -3 15 -13 28 l-18 23
-129 -129 c-103 -104 -142 -136 -194 -161 -80 -37 -113 -46 -144 -38 -27 7
-81 79 -73 100 6 14 187 117 317 180 44 21 99 39 130 43 72 8 90 17 83 44 -9
32 10 20 56 -36z m-1525 -31 c23 -23 20 -39 -15 -68 -37 -32 -88 -35 -113 -7
-25 28 -17 53 24 73 43 22 84 23 104 2z"/>
<path d="M7254 6962 c-99 -66 -121 -88 -108 -110 26 -40 83 -21 157 53 51 51
66 83 46 96 -19 12 -16 13 -95 -39z"/>
<path d="M6935 6748 c-54 -30 -115 -110 -115 -151 0 -27 28 -57 53 -57 22 0
94 65 113 101 19 38 18 83 -4 102 -22 20 -21 20 -47 5z"/>
<path d="M3696 6357 c-42 -32 -61 -148 -27 -167 48 -25 92 6 105 75 12 63 -38
122 -78 92z"/>
<path d="M4567 6053 c-14 -13 -6 -50 14 -69 17 -16 22 -16 29 -4 6 8 10 30 10
48 0 27 -4 32 -23 32 -13 0 -27 -3 -30 -7z"/>
<path d="M5799 5941 c-52 -53 -35 -131 59 -271 44 -66 78 -75 136 -38 28 18
36 30 36 54 0 41 -92 221 -130 257 -39 35 -64 34 -101 -2z"/>
<path d="M6903 5808 c-30 -33 -94 -136 -123 -197 -22 -48 -23 -55 -9 -79 19
-34 57 -39 92 -12 34 27 120 156 142 214 16 43 16 47 1 71 -22 33 -74 34 -103
3z"/>
<path d="M4925 5762 c-32 -6 -63 -41 -70 -78 -13 -70 41 -241 83 -263 33 -18
97 -13 115 7 22 25 21 47 -8 176 -30 134 -58 170 -120 158z"/>
<path d="M6554 5285 c-42 -18 -184 -227 -184 -272 0 -30 44 -67 72 -60 61 16
208 214 208 280 0 44 -50 72 -96 52z"/>
<path d="M7022 4928 c-51 -53 -162 -221 -162 -245 0 -28 33 -63 60 -63 52 0
196 189 207 270 10 75 -48 96 -105 38z"/>
<path d="M6103 4760 c-51 -21 -213 -214 -213 -254 0 -35 28 -66 59 -66 57 0
261 204 261 261 0 54 -50 82 -107 59z"/>
<path d="M7342 4673 c-28 -11 -177 -230 -192 -284 -9 -30 11 -69 35 -69 46 0
198 196 225 290 15 52 -18 83 -68 63z"/>
<path d="M6604 4374 c-52 -27 -94 -64 -159 -141 -74 -87 -81 -114 -35 -138 39
-20 47 -15 141 82 99 103 131 147 127 174 -4 30 -39 41 -74 23z"/>
<path d="M5572 4320 c-18 -11 -67 -53 -109 -93 -64 -61 -76 -79 -76 -105 0
-38 27 -72 58 -72 32 0 109 55 187 132 52 52 68 75 68 97 0 58 -65 79 -128 41z"/>
<path d="M6837 4079 c-46 -30 -148 -133 -167 -168 -7 -14 -6 -22 6 -32 23 -19
70 10 165 101 60 58 79 83 79 103 0 36 -24 35 -83 -4z"/>
<path d="M6065 3921 c-67 -39 -198 -165 -193 -187 1 -9 11 -22 20 -27 19 -13
82 23 197 113 77 60 96 94 66 117 -26 18 -33 17 -90 -16z"/>
<path d="M5335 3494 c-71 -36 -134 -69 -138 -73 -11 -11 2 -40 22 -51 23 -12
180 82 241 144 62 64 35 60 -125 -20z"/>
<path d="M4143 8780 c2 -41 10 -76 15 -78 6 -2 14 -20 18 -40 4 -20 12 -40 18
-44 6 -4 -1 -8 -15 -8 l-26 0 4 -72 c5 -82 39 -292 52 -323 4 -11 21 -60 36
-110 55 -180 296 -598 399 -694 15 -14 41 -48 58 -75 17 -28 58 -79 91 -114
33 -35 57 -65 54 -68 -11 -12 -128 88 -214 183 -97 107 -100 110 -329 345 -89
91 -180 189 -203 217 -22 29 -41 48 -41 41 0 -30 59 -177 116 -291 105 -207
219 -363 402 -547 45 -46 80 -88 77 -92 -11 -18 -127 36 -244 112 -31 20 -33
20 -23 2 19 -34 125 -150 179 -196 29 -24 94 -67 145 -96 51 -29 121 -70 155
-91 141 -87 395 -164 633 -192 156 -18 428 -7 498 21 95 37 166 77 257 145 50
37 96 70 104 75 25 13 2 28 -67 44 -240 55 -639 251 -882 434 -264 199 -545
472 -773 752 -34 41 -65 77 -69 78 -5 2 -8 8 -8 14 0 6 -15 24 -34 42 -19 17
-35 34 -35 38 -4 24 -15 38 -31 38 -9 0 -25 9 -35 20 -16 18 -14 25 8 21 4 0
7 4 7 10 0 6 -9 8 -22 3 -21 -6 -22 -5 -8 11 13 15 11 19 -15 38 -16 12 -35
22 -43 24 -20 2 -33 26 -22 37 6 6 10 17 9 26 0 11 -2 10 -8 -4 -7 -18 -8 -18
-29 4 -24 26 -28 40 -12 40 19 0 10 37 -29 116 -21 43 -55 122 -75 174 -21 52
-40 97 -43 100 -3 3 -3 -29 0 -70z m472 -846 c17 -18 25 -38 25 -63 0 -31 -8
-44 -55 -89 -31 -28 -64 -52 -73 -52 -51 0 -92 98 -66 159 23 56 39 67 94 70
43 2 54 -2 75 -25z m160 -180 c39 -15 59 -112 32 -164 -22 -43 -94 -90 -138
-90 -47 0 -73 23 -88 77 -15 54 -15 55 26 102 59 70 115 95 168 75z m230 -249
c17 -16 25 -35 25 -57 0 -56 -79 -154 -138 -173 -40 -12 -68 2 -92 48 -21 40
-22 48 -10 76 7 17 34 54 59 81 42 45 51 50 89 50 32 0 49 -6 67 -25z m206
-164 c33 -27 39 -122 10 -179 -41 -81 -133 -122 -199 -88 -47 24 -63 53 -56
100 19 128 168 230 245 167z m59 -168 c-11 -17 -11 -17 -6 0 3 10 6 24 7 30 0
9 2 9 5 0 3 -7 0 -20 -6 -30z m215 -79 c41 -19 50 -49 34 -122 -9 -45 -21 -66
-59 -106 l-49 -51 -66 0 c-81 0 -95 14 -95 91 0 46 5 59 44 112 34 46 54 63
88 75 56 20 64 20 103 1z m-283 -26 c-8 -8 -9 -4 -5 13 4 13 8 18 11 10 2 -7
-1 -18 -6 -23z m-36 -73 c-8 -38 -17 -43 -36 -20 -11 13 -9 20 10 40 29 31 34
26 26 -20z m494 -30 c0 -21 -40 -99 -90 -176 -32 -49 -37 -65 -29 -80 13 -24
-10 -36 -40 -20 -48 26 -45 44 21 122 33 40 67 89 75 109 8 19 20 41 25 48 14
17 38 15 38 -3z m160 -86 c0 -11 -25 -61 -55 -111 -57 -95 -63 -115 -43 -148
7 -10 9 -22 5 -26 -14 -14 -61 11 -80 44 -19 32 -19 32 3 40 13 5 40 41 66 90
l45 82 -25 24 c-14 13 -26 25 -26 27 0 2 25 2 55 1 47 -3 55 -7 55 -23z m205
-69 c4 -6 -10 -46 -31 -90 -35 -75 -37 -89 -18 -134 6 -17 4 -18 -22 -12 -16
4 -37 16 -48 26 -18 18 -18 19 1 47 11 15 30 47 42 71 20 40 21 43 4 48 -10 3
-25 8 -33 11 -10 4 -2 12 25 24 45 21 71 24 80 9z"/>
<path d="M4516 7895 c-20 -18 -26 -34 -26 -65 0 -44 11 -50 48 -24 26 18 55
71 47 84 -17 27 -43 29 -69 5z"/>
<path d="M4669 7661 c-39 -39 -53 -91 -29 -106 37 -23 130 43 130 92 0 63 -46
70 -101 14z"/>
<path d="M4888 7453 c-41 -44 -62 -92 -47 -109 19 -23 59 -16 89 16 31 33 55
93 45 110 -12 20 -61 10 -87 -17z"/>
<path d="M5086 7268 c-42 -37 -70 -103 -55 -130 15 -27 80 -24 106 5 27 29 53
81 53 105 0 22 -30 52 -52 52 -8 0 -31 -15 -52 -32z"/>
<path d="M5356 7000 c-71 -76 -81 -121 -29 -141 35 -13 39 -12 78 23 60 52 91
128 63 156 -26 26 -64 13 -112 -38z"/>
<path d="M4152 8645 c0 -16 2 -22 5 -12 2 9 2 23 0 30 -3 6 -5 -1 -5 -18z"/>
<path d="M7585 7630 c-4 -6 15 -10 49 -10 31 0 56 5 56 10 0 6 -22 10 -49 10
-28 0 -53 -4 -56 -10z"/>
<path d="M8710 7230 c0 -6 7 -10 15 -10 8 0 15 2 15 4 0 2 -7 6 -15 10 -8 3
-15 1 -15 -4z"/>
<path d="M2285 5799 c11 -12 47 -47 79 -78 33 -31 94 -89 135 -130 470 -456
1035 -750 1686 -876 430 -83 723 -84 1115 -1 371 78 539 182 857 530 71 77
154 168 186 203 37 41 57 71 57 87 0 24 -2 24 -28 13 -15 -7 -64 -33 -108 -60
-145 -85 -418 -189 -699 -266 -441 -121 -1122 -99 -1692 54 -513 137 -641 174
-818 232 -205 67 -477 172 -620 238 -44 20 -100 46 -125 57 l-44 19 19 -22z
m1313 -514 c3 -3 -34 -196 -44 -228 -4 -13 2 -21 25 -30 31 -11 42 -39 21 -52
-11 -7 -150 53 -150 65 0 4 10 6 22 6 20 -1 24 8 40 79 25 120 30 113 -66 89
-21 -5 -26 -3 -26 12 0 32 15 45 66 58 40 11 99 11 112 1z m346 -137 c-3 -29
-10 -80 -15 -113 -15 -100 -13 -115 16 -115 21 0 25 -5 25 -30 0 -16 -3 -30
-6 -30 -18 0 -174 52 -179 60 -9 14 27 29 46 19 15 -8 19 0 29 64 6 39 13 83
16 95 5 23 4 24 -46 17 -48 -7 -50 -6 -50 18 0 20 9 28 53 45 28 11 67 21 85
21 l33 1 -7 -52z m1756 -72 c31 -90 33 -92 61 -88 21 3 29 0 29 -11 0 -21 -18
-33 -70 -47 -25 -7 -51 -17 -57 -22 -10 -8 -13 -6 -13 5 0 9 5 19 10 22 6 3
10 19 10 35 0 31 -37 140 -48 140 -3 0 -23 -16 -44 -36 l-37 -37 -7 28 c-6 25
-1 34 51 84 68 66 67 67 115 -73z m-1392 50 c42 -22 57 -60 57 -140 0 -60 -5
-78 -28 -113 -32 -51 -57 -65 -109 -65 -45 1 -92 31 -113 72 -24 46 -20 140 8
181 47 70 123 97 185 65z m1067 -50 c64 -66 80 -147 44 -217 -35 -70 -131 -92
-189 -43 -92 78 -92 218 0 282 54 36 96 30 145 -22z m-720 -80 c-4 -46 -4
-107 0 -135 6 -45 10 -51 31 -51 19 0 24 -5 24 -26 l0 -27 -67 6 c-38 4 -80 7
-95 7 -22 0 -28 5 -28 21 0 18 5 21 35 17 l35 -4 0 103 c0 57 -1 103 -3 103
-1 0 -20 -9 -41 -20 -43 -21 -56 -19 -56 10 0 31 78 79 128 80 l44 0 -7 -84z
m338 42 c4 -18 9 -77 13 -131 6 -91 9 -99 30 -108 13 -4 24 -15 24 -24 0 -12
-15 -15 -82 -14 -72 1 -79 3 -55 12 l28 11 -7 101 c-3 55 -8 102 -9 103 -2 2
-23 -7 -47 -21 -83 -48 -95 -1 -15 61 35 29 62 42 83 42 28 0 32 -4 37 -32z"/>
<path d="M4189 5060 c-28 -28 -30 -34 -27 -97 3 -64 5 -68 35 -86 64 -37 103
8 103 116 0 49 -4 68 -18 80 -28 25 -60 21 -93 -13z"/>
<path d="M5247 5036 c-21 -19 -27 -34 -27 -65 0 -104 74 -166 128 -108 29 31
29 89 0 147 -28 55 -60 64 -101 26z"/>
<path d="M2912 4958 c-33 -33 17 -108 73 -108 46 0 69 21 61 54 -12 48 -103
85 -134 54z"/>
<path d="M4455 4406 c-74 -74 -15 -180 89 -156 42 9 106 64 106 91 0 9 -18 33
-40 53 -34 30 -47 36 -85 36 -35 0 -52 -6 -70 -24z"/>
<path d="M4073 4348 c-28 -30 -38 -71 -23 -98 15 -28 67 -50 103 -43 33 6 67
47 67 79 0 65 -103 109 -147 62z"/>
<path d="M1302 4333 c-12 -10 -24 -30 -28 -45 -5 -22 0 -33 24 -58 37 -36 65
-38 97 -5 33 32 31 60 -4 96 -34 33 -60 37 -89 12z"/>
<path d="M2091 4294 c-12 -15 -21 -32 -21 -38 0 -21 29 -53 60 -66 28 -11 34
-11 58 7 39 29 40 65 2 97 -40 33 -73 33 -99 0z"/>
<path d="M3672 4214 c-27 -18 -29 -55 -4 -77 23 -21 51 -22 80 -1 29 20 28 48
-4 73 -32 25 -43 26 -72 5z"/>
<path d="M1658 4195 c-9 -19 -8 -29 6 -50 20 -31 50 -32 70 -4 13 19 13 25 0
50 -19 38 -60 40 -76 4z"/>
<path d="M2845 4195 c-33 -32 -31 -58 6 -89 39 -33 82 -34 114 -1 32 31 31 56
-1 89 -35 35 -86 35 -119 1z"/>
<path d="M1956 4055 c-35 -53 -6 -105 50 -91 45 12 54 65 18 101 -23 22 -50
18 -68 -10z"/>
<path d="M2265 4000 c-97 -14 -140 -53 -151 -134 -11 -74 31 -157 95 -190 76
-40 265 -40 325 -1 29 20 60 67 70 108 31 133 -145 246 -339 217z m171 -101
c17 -5 41 -21 54 -34 18 -20 22 -31 17 -61 -9 -57 -27 -68 -113 -72 -120 -7
-194 34 -194 105 0 29 28 62 63 72 35 11 124 6 173 -10z"/>
<path d="M1326 3981 c-23 -26 -17 -60 15 -84 32 -23 62 -16 85 18 13 19 13 28
3 47 -7 13 -17 26 -23 30 -21 14 -63 8 -80 -11z"/>
<path d="M1687 3929 c-114 -27 -157 -108 -108 -199 29 -54 71 -73 171 -78 152
-7 240 34 240 113 0 31 -37 94 -72 122 -42 35 -167 58 -231 42z m158 -93 c19
-8 40 -27 47 -41 19 -41 -4 -55 -105 -62 -86 -6 -86 -6 -116 25 -17 17 -31 38
-31 47 0 39 136 59 205 31z"/>
<path d="M3938 3928 c-25 -8 -28 -15 -28 -52 0 -23 6 -48 13 -54 6 -7 19 -34
28 -60 14 -42 19 -47 49 -50 l33 -3 -7 38 c-4 21 -11 68 -15 104 -12 94 -16
98 -73 77z"/>
<path d="M2795 3889 c-38 -12 -82 -23 -97 -26 -32 -6 -46 -43 -19 -50 15 -4
19 -18 24 -76 7 -95 20 -122 71 -143 63 -26 208 -23 264 5 59 30 84 73 79 133
-11 131 -160 203 -322 157z m183 -80 c25 -8 34 -20 44 -51 17 -58 -2 -90 -63
-102 -59 -11 -135 0 -160 25 -23 23 -25 85 -3 117 13 19 24 22 83 22 37 0 82
-5 99 -11z"/>
<path d="M3585 3881 c-95 -43 -126 -140 -66 -211 27 -33 32 -35 104 -38 58 -3
90 1 140 17 78 26 93 42 102 102 7 44 5 49 -30 88 -56 62 -166 81 -250 42z
m169 -72 c34 -27 35 -71 2 -93 -14 -8 -50 -19 -81 -22 -49 -6 -58 -4 -80 16
-15 15 -25 35 -25 52 0 24 7 32 43 48 56 26 107 25 141 -1z"/>
<path d="M3266 3850 c-22 -17 -50 -30 -63 -30 -18 0 -23 -6 -23 -24 0 -49 8
-56 46 -40 19 8 39 12 44 9 6 -4 10 -33 10 -65 0 -58 0 -59 -34 -70 -19 -6
-37 -18 -40 -27 -12 -30 9 -36 89 -24 42 6 92 11 111 11 28 0 35 4 32 18 -2 9
-17 24 -35 32 -38 18 -43 32 -43 125 0 39 -3 80 -6 93 -9 31 -40 28 -88 -8z"/>
<path d="M2321 3530 c-30 -5 -60 -6 -67 -3 -21 8 -53 -16 -72 -54 -13 -28 -26
-39 -57 -48 -29 -8 -40 -16 -40 -30 0 -18 6 -20 57 -17 l56 2 7 -42 c3 -24 9
-56 12 -72 l5 -29 88 7 c97 7 193 29 228 52 18 12 22 24 22 65 0 89 -40 147
-115 168 -44 12 -46 12 -124 1z m79 -62 c51 -27 89 -81 73 -106 -11 -18 -91
-42 -140 -42 -30 0 -32 2 -38 48 -3 26 -8 60 -10 75 -4 22 0 30 18 37 34 14
49 12 97 -12z"/>
<path d="M1748 3511 c-31 -5 -71 -17 -90 -28 -88 -51 -115 -178 -52 -252 39
-47 99 -65 198 -59 194 13 295 126 223 252 -40 72 -146 105 -279 87z m167 -97
c33 -16 50 -49 39 -78 -22 -58 -219 -102 -265 -60 -26 24 -41 61 -34 84 16 51
191 87 260 54z"/>
<path d="M3357 3500 c-14 -12 -43 -27 -63 -34 -43 -14 -50 -25 -31 -49 11 -17
15 -17 49 -3 41 17 46 14 50 -33 2 -22 -3 -36 -15 -42 -20 -12 -22 -42 -4 -57
14 -11 127 7 164 26 24 13 66 62 59 70 -3 2 -15 -3 -28 -12 -28 -20 -82 -21
-98 -1 -7 9 -11 37 -9 72 2 32 0 64 -4 71 -12 18 -41 15 -70 -8z"/>
<path d="M3806 3491 c5 -24 1 -33 -29 -55 -48 -37 -127 -59 -162 -46 l-28 11
8 -43 c4 -24 8 -59 9 -78 1 -28 6 -36 26 -42 14 -3 39 -12 57 -19 27 -11 37
-10 74 6 104 47 158 114 145 179 -6 28 -80 116 -98 116 -4 0 -5 -13 -2 -29z
m28 -94 c12 -34 2 -53 -44 -84 -40 -28 -81 -29 -104 -4 -28 31 -15 54 49 88
70 38 86 38 99 0z"/>
<path d="M2671 3455 c-36 -12 -67 -27 -69 -34 -5 -15 26 -51 44 -51 7 0 25
-11 40 -25 15 -14 35 -25 45 -25 16 0 19 8 18 58 -1 31 -4 66 -7 77 l-7 20
-64 -20z"/>
<path d="M4255 3445 c-136 -83 -147 -120 -60 -209 31 -31 60 -56 66 -56 18 0
122 66 145 92 30 32 36 60 28 113 -9 60 -30 85 -79 91 -33 5 -50 -1 -100 -31z
m99 -64 c21 -23 15 -49 -17 -78 -32 -30 -62 -37 -81 -18 -29 29 -15 74 32 99
36 20 46 20 66 -3z"/>
<path d="M2951 3455 c-71 -22 -91 -48 -91 -118 0 -75 26 -122 84 -148 53 -24
83 -24 149 1 58 22 114 70 123 105 6 25 -12 103 -29 124 -38 46 -150 63 -236
36z m171 -78 c35 -44 17 -86 -49 -113 -54 -23 -88 -18 -117 17 -14 17 -26 39
-26 50 0 25 33 57 67 65 16 3 33 7 38 9 23 9 71 -7 87 -28z"/>
<path d="M4749 3371 c-90 -59 -246 -195 -263 -230 -8 -14 -11 -34 -7 -44 6
-16 11 -15 51 14 40 29 310 295 310 305 0 11 -24 0 -91 -45z"/>
<path d="M6040 3283 c-49 -8 -373 -92 -379 -98 -13 -14 20 -41 70 -59 46 -16
79 -19 214 -17 88 1 203 -3 255 -10 101 -11 233 -50 263 -76 16 -15 11 -18
-69 -44 -105 -34 -130 -52 -42 -32 78 19 187 12 227 -14 59 -38 114 -123 137
-214 30 -116 2 -243 -75 -343 -23 -29 -41 -56 -41 -59 0 -12 44 -7 94 10 66
24 139 94 176 168 27 57 29 58 29 28 1 -47 18 -41 42 15 16 35 21 67 21 127
-1 182 -93 344 -257 454 -172 115 -492 194 -665 164z"/>
<path d="M1322 3257 c-45 -48 -16 -119 54 -133 42 -8 94 35 94 77 0 70 -100
107 -148 56z"/>
<path d="M3947 3246 c-36 -13 -104 -59 -119 -80 -15 -21 -7 -62 20 -108 24
-43 83 -98 104 -98 15 0 113 77 141 110 43 51 31 122 -29 169 -31 24 -63 26
-117 7z m81 -78 c7 -7 12 -25 12 -40 0 -33 -47 -68 -91 -68 -25 0 -49 31 -49
65 0 39 99 72 128 43z"/>
<path d="M2648 3223 c-28 -30 -68 -97 -68 -114 0 -6 14 1 31 15 17 14 34 26
39 26 18 0 35 -36 40 -84 5 -50 6 -51 35 -48 53 5 158 82 112 82 -27 0 -70 44
-93 97 -28 62 -55 70 -96 26z"/>
<path d="M3385 3219 c-22 -5 -71 -27 -110 -47 -63 -34 -70 -42 -73 -71 -4 -41
9 -57 34 -43 16 9 22 3 46 -38 15 -27 37 -51 48 -55 47 -15 230 101 230 145 0
25 -30 78 -55 98 -29 23 -55 26 -120 11z m75 -69 c33 -33 26 -58 -22 -80 -58
-26 -83 -25 -107 6 -26 33 -26 50 -2 64 17 8 76 25 104 29 4 1 16 -8 27 -19z"/>
<path d="M2291 3174 c-100 -27 -148 -82 -136 -154 20 -116 129 -166 260 -121
113 40 154 85 141 156 -7 35 -53 97 -85 114 -33 18 -125 21 -180 5z m157 -81
c20 -17 26 -33 23 -61 -1 -14 -88 -56 -137 -66 -56 -12 -125 68 -89 103 38 39
168 54 203 24z"/>
<path d="M4351 3114 c-19 -13 -22 -23 -18 -49 7 -40 -20 -75 -121 -159 -39
-33 -87 -82 -106 -110 -19 -28 -57 -73 -84 -100 -44 -42 -53 -47 -80 -41 -17
3 -36 13 -43 21 -16 20 -29 17 -29 -7 0 -20 88 -122 121 -139 12 -7 25 3 56
48 51 71 306 347 359 387 51 39 84 75 84 92 0 7 -10 18 -22 23 -13 5 -36 18
-53 29 -36 25 -35 25 -64 5z"/>
<path d="M5371 3090 c-29 -4 -57 -12 -62 -17 -15 -15 12 -40 63 -60 25 -10 48
-22 50 -28 1 -5 -31 -21 -72 -35 -41 -14 -93 -34 -115 -44 l-40 -20 150 -17
c228 -26 319 -48 436 -103 61 -29 144 -104 101 -91 -13 4 -47 1 -75 -5 -56
-13 -139 -41 -134 -46 1 -2 36 3 77 10 87 15 164 10 197 -11 34 -23 80 -98 93
-154 17 -70 8 -182 -20 -246 -21 -50 -72 -105 -165 -180 -33 -27 -37 -34 -25
-43 34 -22 152 -4 239 38 76 37 145 106 177 177 22 48 29 79 32 152 9 196 -79
359 -272 505 -80 60 -273 160 -382 199 -67 23 -174 32 -253 19z"/>
<path d="M1847 3065 c-180 -45 -247 -153 -182 -293 21 -45 32 -56 71 -74 116
-51 313 15 370 124 27 51 10 142 -34 191 -47 52 -138 73 -225 52z m139 -109
c62 -62 33 -122 -79 -164 -77 -29 -108 -28 -141 5 -57 56 -44 108 36 149 106
54 138 56 184 10z"/>
<path d="M2925 3055 c-34 -14 -74 -40 -92 -60 -30 -32 -33 -40 -33 -99 l0 -64
58 -37 c51 -33 62 -36 108 -32 64 7 121 35 179 91 38 35 45 49 45 80 0 53 -23
91 -73 121 -56 32 -113 32 -192 0z m139 -55 c30 -11 43 -51 28 -84 -11 -25
-103 -76 -135 -76 -22 0 -77 52 -77 74 0 20 34 51 84 76 46 22 63 24 100 10z"/>
<path d="M3662 3048 c-22 -42 -69 -88 -111 -110 -38 -21 -38 -42 2 -71 21 -16
30 -18 39 -9 19 19 30 14 18 -8 -8 -15 -6 -29 10 -59 11 -22 24 -42 29 -46 10
-6 61 73 61 94 0 7 10 26 21 43 16 22 20 39 16 69 -6 44 -44 129 -58 129 -6 0
-18 -15 -27 -32z"/>
<path d="M2513 2866 c-108 -52 -126 -96 -78 -192 27 -55 71 -89 127 -99 84
-16 228 63 228 124 0 65 -47 147 -104 182 -45 28 -92 24 -173 -15z m153 -70
c46 -46 45 -77 -2 -113 -30 -22 -47 -28 -93 -28 -51 0 -57 2 -69 28 -12 24
-11 32 6 65 21 40 74 82 104 82 11 0 35 -15 54 -34z"/>
<path d="M3280 2851 c-71 -28 -136 -69 -174 -112 -31 -34 -36 -46 -36 -90 0
-27 7 -63 15 -80 22 -41 91 -89 129 -89 41 0 144 67 224 146 54 54 62 67 62
100 0 47 -43 122 -76 135 -38 14 -94 10 -144 -10z m115 -77 c14 -9 25 -22 25
-29 0 -18 -129 -136 -175 -160 l-36 -20 -25 28 c-26 31 -31 74 -11 99 15 19
98 75 129 88 35 14 66 12 93 -6z"/>
<path d="M3863 2808 c-44 -29 -109 -73 -143 -98 -35 -25 -88 -62 -119 -83 -31
-21 -72 -54 -91 -73 -20 -19 -40 -34 -45 -34 -11 0 -67 -38 -128 -84 -21 -16
-45 -42 -52 -57 -13 -24 -13 -29 6 -53 11 -14 25 -24 29 -21 5 3 35 42 66 86
81 116 308 308 374 316 58 8 92 27 140 79 42 47 60 74 47 74 -2 0 -39 -24 -84
-52z"/>
<path d="M1473 2815 c-3 -9 -3 -18 0 -21 6 -7 47 18 47 28 0 15 -41 8 -47 -7z"/>
<path d="M2173 2700 c-84 -48 -87 -118 -4 -112 39 2 43 0 74 -44 40 -57 58
-107 51 -143 -9 -43 17 -58 57 -34 62 35 60 59 -16 207 -74 143 -82 156 -99
156 -6 0 -35 -14 -63 -30z"/>
<path d="M4310 2674 c-45 -19 -98 -71 -162 -157 -60 -80 -88 -150 -88 -217 0
-43 5 -55 37 -91 102 -113 236 -128 306 -36 53 70 136 194 157 236 31 62 26
167 -10 207 -52 56 -176 86 -240 58z m128 -124 c26 -16 32 -26 32 -52 0 -38
-36 -111 -91 -185 -54 -72 -81 -89 -117 -74 -47 20 -82 59 -82 92 0 36 59 126
122 185 62 60 84 65 136 34z"/>
<path d="M1280 2643 c-62 -24 -80 -96 -34 -138 36 -34 80 -33 116 2 35 34 38
81 6 111 -25 23 -65 34 -88 25z"/>
<path d="M2832 2579 c-89 -17 -201 -100 -237 -176 -21 -43 -16 -132 9 -180 21
-41 105 -83 166 -83 128 0 301 177 288 295 -7 58 -28 88 -80 118 -52 30 -90
37 -146 26z m103 -104 c54 -53 13 -138 -102 -214 -59 -39 -79 -39 -120 1 -50
48 -46 89 12 144 50 48 128 93 163 94 13 0 34 -11 47 -25z"/>
<path d="M3604 2551 c-74 -43 -159 -139 -180 -205 -41 -130 31 -236 160 -236
66 0 133 37 200 111 75 84 110 155 104 213 -14 125 -163 186 -284 117z m141
-75 c46 -19 57 -43 39 -84 -20 -49 -140 -169 -182 -183 -34 -11 -37 -10 -69
24 -18 20 -33 41 -33 46 0 18 105 149 144 180 44 35 53 37 101 17z"/>
<path d="M1825 2501 c-204 -73 -276 -242 -160 -379 36 -43 84 -62 159 -62 47
0 75 6 114 26 65 32 145 103 166 148 46 97 -10 226 -116 270 -49 21 -101 20
-163 -3z m141 -96 c12 -8 29 -30 38 -50 22 -45 10 -80 -41 -125 -70 -62 -148
-88 -192 -65 -94 48 -79 137 36 216 72 50 109 55 159 24z"/>
<path d="M3165 2301 c3 -17 2 -32 -4 -36 -6 -3 -11 -17 -11 -29 0 -13 -21 -50
-46 -82 -25 -33 -49 -66 -54 -74 -7 -12 -12 -13 -29 -2 -24 14 -60 16 -80 3
-22 -14 -5 -58 43 -108 l42 -46 76 89 c42 49 99 111 127 139 67 65 66 83 -4
135 -30 22 -57 40 -60 40 -4 0 -4 -13 0 -29z"/>
<path d="M2263 2180 c-92 -48 -167 -117 -189 -177 -53 -139 53 -293 192 -280
67 7 118 34 203 107 94 81 126 144 118 236 -6 76 -20 97 -92 130 -78 37 -137
33 -232 -16z m192 -81 c45 -40 46 -73 3 -130 -39 -50 -165 -149 -191 -149 -31
0 -76 29 -92 60 -28 54 -20 84 36 139 116 114 181 135 244 80z"/>
<path d="M2589 2163 c-13 -16 -12 -17 4 -4 16 13 21 21 13 21 -2 0 -10 -8 -17
-17z"/>
<path d="M3894 2161 c-55 -14 -102 -50 -162 -124 -78 -96 -100 -135 -111 -193
-25 -130 49 -224 176 -224 95 0 181 70 272 222 56 92 65 162 32 231 -33 69
-126 108 -207 88z m107 -131 c38 -37 33 -61 -27 -152 -91 -135 -166 -178 -221
-126 -48 45 -20 126 84 237 56 62 69 71 100 71 25 0 43 -8 64 -30z"/>
<path d="M1335 2057 c-58 -58 -43 -135 31 -153 58 -15 118 36 118 101 0 44
-28 74 -77 82 -32 5 -41 1 -72 -30z"/>
<path d="M3183 1973 c-115 -121 -133 -150 -133 -219 0 -79 50 -134 135 -148
37 -6 48 -3 117 43 99 64 208 195 233 280 15 50 -122 151 -207 151 -42 0 -46
-3 -145 -107z m203 -16 c28 -25 35 -38 30 -54 -10 -32 -157 -177 -195 -193
-32 -13 -35 -12 -57 14 -13 15 -24 33 -24 40 0 33 169 226 197 226 7 0 30 -15
49 -33z"/>
<path d="M2733 1993 c-33 -12 4 -91 71 -152 14 -14 26 -31 26 -38 0 -8 -33
-50 -72 -94 -40 -44 -76 -87 -81 -95 -10 -18 -37 -18 -65 2 -17 12 -22 25 -22
58 0 42 -1 43 -27 38 -41 -7 -63 -31 -63 -67 0 -63 81 -145 143 -145 31 0 40
7 212 191 34 35 69 70 78 77 42 31 3 97 -106 179 -56 43 -75 52 -94 46z"/>
<path d="M4202 1878 c-18 -18 -15 -77 4 -85 18 -7 68 27 72 49 7 35 -50 62
-76 36z"/>
<path d="M1833 1826 c-16 -35 -16 -36 7 -61 55 -58 138 -5 99 63 -11 20 -24
28 -52 30 -34 3 -38 0 -54 -32z"/>
<path d="M3389 1581 c-77 -78 7 -162 89 -88 28 26 28 56 1 91 -27 34 -54 33
-90 -3z"/>
<path d="M2926 1549 c-20 -16 -26 -29 -26 -60 0 -33 4 -41 25 -49 72 -28 129
62 69 109 -15 12 -30 21 -34 21 -4 0 -19 -9 -34 -21z"/>
<path d="M2222 1544 c-52 -36 1 -127 60 -105 49 18 59 69 22 106 -20 19 -54
19 -82 -1z"/>
<path d="M5068 1024 c-15 -15 -7 -21 34 -27 62 -8 185 4 163 16 -23 12 -187
22 -197 11z"/>
</g>
</svg>
